<svg xmlns="http://www.w3.org/2000/svg" xmlns:xlink="http://www.w3.org/1999/xlink" width="500" zoomAndPan="magnify" viewBox="0 0 375 374.999991" height="500" preserveAspectRatio="xMidYMid meet" version="1.2"><defs><clipPath id="9bb033b5b9"><path d="M 217.21875 29.476562 L 322.21875 29.476562 L 322.21875 134.476562 L 217.21875 134.476562 Z M 217.21875 29.476562 "/></clipPath><clipPath id="74fbda55d4"><path d="M 85.609375 0.140625 L 249.109375 0.140625 L 249.109375 374.65625 L 85.609375 374.65625 Z M 85.609375 0.140625 "/></clipPath></defs><g id="d01c1b9e5f"><g clip-rule="nonzero" clip-path="url(#9bb033b5b9)"><path style=" stroke:none;fill-rule:nonzero;fill:#5e17eb;fill-opacity:1;" d="M 271.003906 57.570312 C 271.164062 59.039062 271.445312 60.484375 271.851562 61.902344 C 272.257812 63.320312 272.777344 64.695312 273.414062 66.027344 C 274.054688 67.359375 274.800781 68.628906 275.652344 69.832031 C 276.503906 71.035156 277.453125 72.160156 278.5 73.203125 C 279.542969 74.25 280.667969 75.195312 281.871094 76.050781 C 283.074219 76.902344 284.34375 77.648438 285.675781 78.285156 C 287.003906 78.925781 288.378906 79.445312 289.800781 79.851562 C 291.21875 80.257812 292.664062 80.539062 294.132812 80.699219 C 301.230469 81.476562 310.394531 81.980469 322.226562 81.980469 C 310.394531 81.980469 301.230469 82.484375 294.132812 83.261719 C 292.664062 83.421875 291.21875 83.703125 289.800781 84.109375 C 288.378906 84.515625 287.003906 85.035156 285.675781 85.671875 C 284.34375 86.3125 283.074219 87.058594 281.871094 87.910156 C 280.667969 88.761719 279.542969 89.710938 278.5 90.757812 C 277.453125 91.800781 276.503906 92.925781 275.652344 94.128906 C 274.800781 95.332031 274.054688 96.601562 273.414062 97.933594 C 272.777344 99.261719 272.257812 100.636719 271.851562 102.058594 C 271.445312 103.476562 271.164062 104.921875 271.003906 106.390625 C 270.226562 113.488281 269.722656 122.652344 269.722656 134.484375 C 269.722656 122.652344 269.21875 113.488281 268.441406 106.390625 C 268.28125 104.921875 268 103.476562 267.59375 102.058594 C 267.1875 100.636719 266.667969 99.261719 266.027344 97.933594 C 265.390625 96.601562 264.644531 95.332031 263.792969 94.128906 C 262.9375 92.925781 261.992188 91.800781 260.945312 90.757812 C 259.902344 89.710938 258.777344 88.761719 257.574219 87.910156 C 256.371094 87.058594 255.101562 86.3125 253.769531 85.671875 C 252.4375 85.035156 251.0625 84.515625 249.644531 84.109375 C 248.226562 83.703125 246.78125 83.421875 245.3125 83.261719 C 238.214844 82.484375 229.050781 81.980469 217.21875 81.980469 C 229.050781 81.980469 238.214844 81.476562 245.3125 80.699219 C 246.78125 80.539062 248.226562 80.257812 249.644531 79.851562 C 251.0625 79.445312 252.4375 78.925781 253.769531 78.285156 C 255.101562 77.648438 256.371094 76.902344 257.574219 76.050781 C 258.777344 75.195312 259.902344 74.25 260.945312 73.203125 C 261.992188 72.160156 262.9375 71.035156 263.792969 69.832031 C 264.644531 68.628906 265.390625 67.359375 266.027344 66.027344 C 266.667969 64.695312 267.1875 63.320312 267.59375 61.902344 C 268 60.484375 268.28125 59.039062 268.441406 57.570312 C 269.21875 50.472656 269.722656 41.308594 269.722656 29.476562 C 269.722656 41.308594 270.226562 50.472656 271.003906 57.570312 Z M 271.003906 57.570312 "/></g><g clip-rule="nonzero" clip-path="url(#74fbda55d4)"><path style=" stroke:none;fill-rule:nonzero;fill:#5e17eb;fill-opacity:1;" d="M 206.332031 0.140625 L 85.609375 246.085938 L 153.113281 246.496094 L 135.84375 374.65625 L 249.125 180.746094 L 180.515625 178.632812 L 206.332031 0.140625 "/></g></g></svg>