<svg xmlns="http://www.w3.org/2000/svg" width="320" height="40" viewBox="0 0 320 40">
  <defs>
    <linearGradient id="grad" x1="0%" y1="0%" x2="100%" y2="100%">
      <stop offset="0%" stop-color="#217bfe" />
      <stop offset="38%" stop-color="#078efb" />
      <stop offset="70%" stop-color="#ac87eb" />
      <stop offset="100%" stop-color="#ee4d5d" />
    </linearGradient>
  </defs>

  <!-- Text -->
  <text x="0" y="28" font-size="28" font-family="Arial, Helvetica, sans-serif" font-weight="bold" fill="url(#grad)">
    Superb AI
  </text>

  <!-- Icon (aligned with baseline of text) -->
  <g transform="translate(130, 5)">
    <circle cx="20" cy="15" r="14" fill="url(#grad)" />
    <g fill="white">
      <!-- Large star -->
      <path d="M20 8c1.5 3 1.5 3 3 4-1.5 1-1.5 1-3 4-1.5-3-1.5-3-3-4 1.5-1 1.5-1 3-4Z" />
      <!-- Small star -->
      <path d="M27 13c1 2 1 2 2 2-1 0-1 0-2 2-1-2-1-2-2-2 1 0 1 0 2-2Z" />
    </g>
  </g>
</svg>
